<?xml version="1.0" encoding="UTF-8" standalone="no"?>
<!DOCTYPE svg PUBLIC "-//W3C//DTD SVG 1.1//EN"
 "http://www.w3.org/Graphics/SVG/1.1/DTD/svg11.dtd">
<!-- Generated by graphviz version 2.38.0 (20140413.2041)
 -->
<!-- Title: %3 Pages: 1 -->
<svg width="393pt" height="330pt"
 viewBox="0.00 0.00 392.70 330.13" xmlns="http://www.w3.org/2000/svg" xmlns:xlink="http://www.w3.org/1999/xlink">
<g id="graph0" class="graph" transform="scale(1 1) rotate(0) translate(4 326.132)">
<title>%3</title>
<polygon fill="white" stroke="none" points="-4,4 -4,-326.132 388.697,-326.132 388.697,4 -4,4"/>
<g id="clust1" class="cluster"><title>cluster10</title>
<path fill="none" stroke="black" d="M76.1435,-8C76.1435,-8 178.144,-8 178.144,-8 184.144,-8 190.144,-14 190.144,-20 190.144,-20 190.144,-211.421 190.144,-211.421 190.144,-217.421 184.144,-223.421 178.144,-223.421 178.144,-223.421 76.1435,-223.421 76.1435,-223.421 70.1435,-223.421 64.1435,-217.421 64.1435,-211.421 64.1435,-211.421 64.1435,-20 64.1435,-20 64.1435,-14 70.1435,-8 76.1435,-8"/>
<text text-anchor="middle" x="175.144" y="-14.8" font-family="Times,serif" font-size="14.00">10</text>
</g>
<!-- rhosq -->
<g id="node1" class="node"><title>rhosq</title>
<ellipse fill="none" stroke="black" cx="59.1435" cy="-286.777" rx="59.2874" ry="35.2113"/>
<text text-anchor="middle" x="59.1435" y="-296.577" font-family="Times,serif" font-size="14.00">rhosq</text>
<text text-anchor="middle" x="59.1435" y="-282.577" font-family="Times,serif" font-size="14.00">~</text>
<text text-anchor="middle" x="59.1435" y="-268.577" font-family="Times,serif" font-size="14.00">HalfCauchy</text>
</g>
<!-- g -->
<g id="node5" class="node"><title>g</title>
<ellipse fill="none" stroke="black" cx="127.144" cy="-180.066" rx="55.1118" ry="35.2113"/>
<text text-anchor="middle" x="127.144" y="-189.866" font-family="Times,serif" font-size="14.00">g</text>
<text text-anchor="middle" x="127.144" y="-175.866" font-family="Times,serif" font-size="14.00">~</text>
<text text-anchor="middle" x="127.144" y="-161.866" font-family="Times,serif" font-size="14.00">MvNormal</text>
</g>
<!-- rhosq&#45;&gt;g -->
<g id="edge1" class="edge"><title>rhosq&#45;&gt;g</title>
<path fill="none" stroke="black" d="M80.1006,-253.506C86.6249,-243.459 93.9043,-232.25 100.75,-221.708"/>
<polygon fill="black" stroke="black" points="103.861,-223.343 106.373,-213.051 97.9907,-219.531 103.861,-223.343"/>
</g>
<!-- a -->
<g id="node2" class="node"><title>a</title>
<ellipse fill="none" stroke="black" cx="242.144" cy="-180.066" rx="41.6072" ry="35.2113"/>
<text text-anchor="middle" x="242.144" y="-189.866" font-family="Times,serif" font-size="14.00">a</text>
<text text-anchor="middle" x="242.144" y="-175.866" font-family="Times,serif" font-size="14.00">~</text>
<text text-anchor="middle" x="242.144" y="-161.866" font-family="Times,serif" font-size="14.00">Normal</text>
</g>
<!-- total_tools -->
<g id="node6" class="node"><title>total_tools</title>
<ellipse fill="lightgrey" stroke="black" cx="129.144" cy="-73.3553" rx="53.2223" ry="35.2113"/>
<text text-anchor="middle" x="129.144" y="-83.1553" font-family="Times,serif" font-size="14.00">total_tools</text>
<text text-anchor="middle" x="129.144" y="-69.1553" font-family="Times,serif" font-size="14.00">~</text>
<text text-anchor="middle" x="129.144" y="-55.1553" font-family="Times,serif" font-size="14.00">Poisson</text>
</g>
<!-- a&#45;&gt;total_tools -->
<g id="edge5" class="edge"><title>a&#45;&gt;total_tools</title>
<path fill="none" stroke="black" d="M214.501,-153.451C200.238,-140.235 182.623,-123.911 167.105,-109.532"/>
<polygon fill="black" stroke="black" points="169.394,-106.881 159.68,-102.652 164.636,-112.016 169.394,-106.881"/>
</g>
<!-- bp -->
<g id="node3" class="node"><title>bp</title>
<ellipse fill="none" stroke="black" cx="343.144" cy="-180.066" rx="41.6072" ry="35.2113"/>
<text text-anchor="middle" x="343.144" y="-189.866" font-family="Times,serif" font-size="14.00">bp</text>
<text text-anchor="middle" x="343.144" y="-175.866" font-family="Times,serif" font-size="14.00">~</text>
<text text-anchor="middle" x="343.144" y="-161.866" font-family="Times,serif" font-size="14.00">Normal</text>
</g>
<!-- bp&#45;&gt;total_tools -->
<g id="edge4" class="edge"><title>bp&#45;&gt;total_tools</title>
<path fill="none" stroke="black" d="M312.001,-156.287C305.884,-152.211 299.416,-148.167 293.144,-144.711 258.197,-125.454 216.907,-107.767 184.499,-94.9433"/>
<polygon fill="black" stroke="black" points="185.764,-91.6799 175.176,-91.2911 183.211,-98.1976 185.764,-91.6799"/>
</g>
<!-- etasq -->
<g id="node4" class="node"><title>etasq</title>
<ellipse fill="none" stroke="black" cx="195.144" cy="-286.777" rx="59.2874" ry="35.2113"/>
<text text-anchor="middle" x="195.144" y="-296.577" font-family="Times,serif" font-size="14.00">etasq</text>
<text text-anchor="middle" x="195.144" y="-282.577" font-family="Times,serif" font-size="14.00">~</text>
<text text-anchor="middle" x="195.144" y="-268.577" font-family="Times,serif" font-size="14.00">HalfCauchy</text>
</g>
<!-- etasq&#45;&gt;g -->
<g id="edge2" class="edge"><title>etasq&#45;&gt;g</title>
<path fill="none" stroke="black" d="M174.186,-253.506C167.662,-243.459 160.383,-232.25 153.537,-221.708"/>
<polygon fill="black" stroke="black" points="156.296,-219.531 147.915,-213.051 150.426,-223.343 156.296,-219.531"/>
</g>
<!-- g&#45;&gt;total_tools -->
<g id="edge3" class="edge"><title>g&#45;&gt;total_tools</title>
<path fill="none" stroke="black" d="M127.804,-144.49C127.959,-136.358 128.127,-127.578 128.289,-119.072"/>
<polygon fill="black" stroke="black" points="131.792,-118.96 128.484,-108.895 124.793,-118.827 131.792,-118.96"/>
</g>
</g>
</svg>
